<svg width="21" height="20" viewBox="0 0 21 20" fill="none" xmlns="http://www.w3.org/2000/svg">
<path d="M20.5001 10.2252C20.5001 9.56683 20.4405 8.94183 20.3383 8.3335H10.7172V12.0918H16.226C15.979 13.3252 15.2553 14.3668 14.1825 15.0752V17.5752H17.469C19.3933 15.8335 20.5001 13.2668 20.5001 10.2252Z" fill="#4285F4"/>
<path d="M10.7172 19.9999C13.4758 19.9999 15.7832 19.0999 17.469 17.5749L14.1825 15.0749C13.263 15.6749 12.0965 16.0415 10.7172 16.0415C8.05223 16.0415 5.79595 14.2832 4.9871 11.9082H1.59842V14.4832C3.27573 17.7499 6.72401 19.9999 10.7172 19.9999Z" fill="#34A853"/>
<path d="M4.98714 11.9083C4.77428 11.3083 4.6636 10.6666 4.6636 9.99993C4.6636 9.33327 4.7828 8.6916 4.98714 8.0916V5.5166H1.59846C0.900291 6.8666 0.500122 8.38327 0.500122 9.99993C0.500122 11.6166 0.900291 13.1333 1.59846 14.4833L4.98714 11.9083Z" fill="#FBBC05"/>
<path d="M10.7172 3.95833C12.2242 3.95833 13.5695 4.46667 14.6338 5.45834L17.5456 2.60833C15.7832 0.991668 13.4758 0 10.7172 0C6.724 0 3.27573 2.25 1.59842 5.51667L4.9871 8.09167C5.79595 5.71667 8.05223 3.95833 10.7172 3.95833Z" fill="#EA4335"/>
</svg>
