<svg width="24" height="24" viewBox="0 0 24 24" fill="none" xmlns="http://www.w3.org/2000/svg">
<path fill-rule="evenodd" clip-rule="evenodd" d="M2.89329 21.1105C3.4637 21.6768 4.23708 21.9965 5.04464 22H18.942C19.7519 22 20.5287 21.6818 21.102 21.1151C21.6753 20.5485 21.9982 19.7797 22 18.9775V8.74198C21.9967 8.20045 21.8465 7.66974 21.5652 7.20537C21.2839 6.741 20.8819 6.36001 20.4011 6.10226L13.4457 2.36705C12.999 2.12619 12.4986 2 11.99 2C11.4814 2 10.981 2.12619 10.5343 2.36705L3.59893 6.12206C3.11812 6.37981 2.71605 6.7608 2.43477 7.22517C2.1535 7.68954 2.00334 8.22024 2 8.76178V18.9775C2.00175 19.7775 2.32288 20.5442 2.89329 21.1105ZM14.5363 18.2225C15.2522 17.6378 15.7405 16.8245 15.9174 15.9222V15.9024C15.9285 15.812 15.9206 15.7204 15.8942 15.6332C15.8679 15.546 15.8236 15.4651 15.7641 15.3957C15.7047 15.3263 15.6314 15.2698 15.5488 15.2298C15.4663 15.1898 15.3763 15.1672 15.2845 15.1633C15.1258 15.161 14.9714 15.2149 14.8493 15.3153C14.7271 15.4157 14.6452 15.5561 14.6182 15.711C14.4928 16.3042 14.165 16.8366 13.6901 17.2187C13.2151 17.6009 12.6219 17.8094 12.01 17.8094C11.3981 17.8094 10.8049 17.6009 10.3299 17.2187C9.85494 16.8366 9.52719 16.3042 9.40172 15.711C9.37476 15.5561 9.29283 15.4157 9.17068 15.3153C9.04854 15.2149 8.89422 15.161 8.7355 15.1633C8.63893 15.1622 8.54328 15.1819 8.45517 15.2211C8.36705 15.2603 8.2886 15.3179 8.22522 15.3901C8.16185 15.4623 8.11508 15.5473 8.08815 15.6392C8.06123 15.731 8.05479 15.8276 8.06928 15.9222C8.24615 16.8245 8.73443 17.6378 9.45039 18.2225C10.1664 18.8073 11.0654 19.1271 11.9933 19.1271C12.9213 19.1271 13.8203 18.8073 14.5363 18.2225Z" fill="white"/>
</svg>
