<svg width="28" height="28" viewBox="0 0 28 28" fill="none" xmlns="http://www.w3.org/2000/svg">
<g clip-path="url(#clip0_6550_8494)">
<path d="M3.5 14C3.5 15.3789 3.77159 16.7443 4.29926 18.0182C4.82694 19.2921 5.60036 20.4496 6.57538 21.4246C7.55039 22.3996 8.70791 23.1731 9.98182 23.7007C11.2557 24.2284 12.6211 24.5 14 24.5C15.3789 24.5 16.7443 24.2284 18.0182 23.7007C19.2921 23.1731 20.4496 22.3996 21.4246 21.4246C22.3996 20.4496 23.1731 19.2921 23.7007 18.0182C24.2284 16.7443 24.5 15.3789 24.5 14C24.5 12.6211 24.2284 11.2557 23.7007 9.98182C23.1731 8.70791 22.3996 7.55039 21.4246 6.57538C20.4496 5.60036 19.2921 4.82694 18.0182 4.29927C16.7443 3.77159 15.3789 3.5 14 3.5C12.6211 3.5 11.2557 3.77159 9.98182 4.29927C8.70791 4.82694 7.55039 5.60036 6.57538 6.57538C5.60036 7.55039 4.82694 8.70791 4.29926 9.98182C3.77159 11.2557 3.5 12.6211 3.5 14Z" stroke="#ADADAD" stroke-width="2" stroke-linecap="round" stroke-linejoin="round"/>
<path d="M10.5 11.666C10.5 12.5943 10.8687 13.4845 11.5251 14.1409C12.1815 14.7973 13.0717 15.166 14 15.166C14.9283 15.166 15.8185 14.7973 16.4749 14.1409C17.1313 13.4845 17.5 12.5943 17.5 11.666C17.5 10.7378 17.1313 9.84752 16.4749 9.19114C15.8185 8.53476 14.9283 8.16602 14 8.16602C13.0717 8.16602 12.1815 8.53476 11.5251 9.19114C10.8687 9.84752 10.5 10.7378 10.5 11.666Z" stroke="#ADADAD" stroke-width="2" stroke-linecap="round" stroke-linejoin="round"/>
<path d="M7.19604 21.9898C7.48481 21.0288 8.07567 20.1864 8.881 19.5877C9.68632 18.9889 10.6632 18.6657 11.6667 18.666H16.3334C17.3382 18.6657 18.3163 18.9896 19.1222 19.5898C19.9281 20.1899 20.5188 21.0341 20.8064 21.9968" stroke="#ADADAD" stroke-width="2" stroke-linecap="round" stroke-linejoin="round"/>
</g>
<defs>
<clipPath id="clip0_6550_8494">
<rect width="28" height="28" fill="white"/>
</clipPath>
</defs>
</svg>
